<svg width="177" height="24" viewBox="0 0 177 24" fill="none" xmlns="http://www.w3.org/2000/svg">
<g clip-path="url(#clip0_4614_50184)">
<path fill-rule="evenodd" clip-rule="evenodd" d="M16.7411 10.528V23.6347H12.9886V13.3151L2.85119 23.4616C2.73279 23.58 2.56884 23.6438 2.39578 23.6438H0.665234C0.310016 23.6438 0.0276628 23.3523 0.0276628 22.9971L0.0185547 21.2666C0.0185547 21.0935 0.0823118 20.9296 0.209826 20.8112L10.3563 10.6647H0.0276628V6.91211H13.1343C15.1199 6.91211 16.7411 8.54247 16.7411 10.528Z" fill="#00183C"/>
<path d="M83.0854 23.6807H87.093V16.1483C87.093 12.4868 88.7143 10.2188 91.3374 10.2188C93.2593 10.2188 94.3522 11.4302 94.3522 13.5524V23.6625H98.3598V12.7873C98.3598 9.24428 96.0008 6.85794 92.4577 6.85794C90.0441 6.85794 87.9674 8.00557 87.0839 9.87274V7.1494H83.0763L83.0854 23.6807ZM76.5913 23.6807H80.5989V7.14029H76.5913V23.6807ZM76.4729 5.2549H80.7173V1.12891H76.4729V5.2549ZM60.5974 18.2522C60.9526 21.8318 63.4938 23.9722 67.893 23.9722C72.2923 23.9722 74.8608 22.1688 74.8608 18.4526C74.8608 12.0132 65.1788 14.8549 65.1788 11.8128C65.1788 10.9566 65.9439 10.2188 67.5925 10.2188C69.241 10.2188 70.252 10.9839 70.4889 12.1042H74.4782C74.0046 8.83441 71.5545 6.84883 67.5925 6.84883C63.6304 6.84883 61.2167 8.79798 61.2167 11.9221C61.2167 18.4982 70.8987 15.6382 70.8987 18.8078C70.8987 19.9373 69.6327 20.6113 67.8657 20.6113C66.2444 20.6113 64.9693 19.7915 64.5959 18.2522H60.5974ZM54.8684 23.6807H58.8759V7.14029H54.8684V23.6807ZM54.7499 5.2549H58.9944V1.12891H54.7499V5.2549ZM33.9105 6.91259C31.5788 6.91259 29.3928 8.2697 28.6824 9.86363V7.14029H24.6748V23.6716H28.6824V17.2686C28.6824 12.4868 30.3583 10.5923 34.0289 10.5923H35.2676V6.90348L33.9105 6.91259ZM48.3651 7.14029V9.59039C47.6274 7.99646 45.4687 6.84883 43.2919 6.84883C38.4828 6.84883 35.3769 10.2097 35.3769 15.4105C35.3769 20.6113 38.4737 23.9722 43.2919 23.9722C45.4778 23.9722 47.6274 22.8245 48.3651 21.2306V23.6807H52.3727V7.1494L48.3651 7.14029ZM43.975 20.6022C41.2334 20.6022 39.5211 18.5073 39.5211 15.4105C39.5211 12.3137 41.2334 10.2188 43.975 10.2188C46.7166 10.2188 48.4289 12.3137 48.4289 15.4105C48.4289 18.5073 46.7166 20.6022 43.975 20.6022Z" fill="#00183C"/>
<path d="M126.95 15.4197C126.95 12.3047 128.662 10.219 131.413 10.219C134.163 10.219 135.876 12.323 135.876 15.4197C135.876 18.5165 134.163 20.6205 131.413 20.6205C128.662 20.6205 126.95 18.5347 126.95 15.4197ZM122.814 15.4197C122.814 20.6205 125.92 23.9996 130.748 23.9996C132.934 23.9996 135.092 22.852 135.839 21.249V23.699H139.856V7.14041H135.839V9.59051C135.101 7.98747 132.934 6.83984 130.748 6.83984C125.911 6.83984 122.814 10.219 122.814 15.4197Z" fill="#3096FF"/>
<path d="M117.14 15.4197C117.14 12.3047 115.428 10.2098 112.677 10.2098C109.926 10.2098 108.214 12.3138 108.214 15.4197C108.214 18.5256 109.926 20.6204 112.677 20.6204C115.428 20.6204 117.14 18.5347 117.14 15.4197ZM121.284 15.4197C121.284 20.6204 118.178 23.9996 113.351 23.9996C111.165 23.9996 109.006 22.8519 108.269 21.2489V23.699H104.252V0.291016H108.269V9.59045C109.006 7.98741 111.174 6.83978 113.351 6.83978C118.169 6.84889 121.284 10.2189 121.284 15.4197Z" fill="#3096FF"/>
<path d="M142.188 23.7082H146.205V16.1666C146.205 12.496 147.826 10.219 150.467 10.219C152.398 10.219 153.482 11.4304 153.482 13.5526V23.699H157.499V12.7875C157.499 9.23529 155.14 6.83984 151.578 6.83984C149.146 6.83984 147.079 7.98747 146.195 9.86375V7.14041H142.179L142.188 23.7082Z" fill="#3096FF"/>
<path d="M159.931 23.7813V0.254883H163.993V12.9699L170.059 7.03135H175.642L168.838 13.5801L176.134 23.7813H171.097L166.07 16.3217L164.002 18.2981V23.7813H159.931Z" fill="#3096FF"/>
</g>
<defs>
<clipPath id="clip0_4614_50184">
<rect width="176.134" height="24" fill="white"/>
</clipPath>
</defs>
</svg>
